# Blender 4.5.4 LTS
# www.blender.org
mtllib signpost.mtl
o Cylinder
v 0.000000 -1.500000 -0.125000
v 0.000000 1.500000 0.000000
v 0.088388 -1.500000 -0.088388
v 0.125000 -1.500000 0.000000
v 0.088388 -1.500000 0.088388
v 0.000000 -1.500000 0.125000
v -0.088388 -1.500000 0.088388
v -0.125000 -1.500000 0.000000
v -0.088388 -1.500000 -0.088388
v 0.000000 1.049808 -0.125000
v 0.000000 1.290972 -0.125000
v 0.088388 1.290972 -0.088388
v 0.088388 1.049808 -0.088388
v 0.125000 1.290972 0.000000
v 0.125000 1.049808 0.000000
v 0.088388 1.290972 0.088388
v 0.088388 1.049808 0.088388
v 0.000000 1.290972 0.125000
v 0.000000 1.049808 0.125000
v -0.088388 1.290972 0.088388
v -0.088388 1.049808 0.088388
v -0.125000 1.290972 0.000000
v -0.125000 1.049808 0.000000
v -0.088388 1.290972 -0.088388
v -0.088388 1.049808 -0.088388
v 0.000000 1.170390 -1.000000
v 0.088388 0.801099 -0.088388
v 0.088388 0.561713 -0.088388
v 0.125000 0.801099 0.000000
v 0.125000 0.561713 0.000000
v 0.088388 0.801099 0.088388
v 0.088388 0.561713 0.088388
v 0.000000 0.801099 0.125000
v 0.000000 0.561713 0.125000
v -0.088388 0.801099 0.088388
v -0.088388 0.561713 0.088388
v -0.125000 0.801099 0.000000
v -0.125000 0.561713 0.000000
v -0.088388 0.801099 -0.088388
v -0.088388 0.561713 -0.088388
v 0.000000 0.561713 -0.125000
v 0.000000 0.801099 -0.125000
v 1.000000 0.681406 -0.000000
v -1.000000 0.925453 0.000000
vn 0.3350 0.4836 -0.8087
vn 0.8087 0.4836 -0.3350
vn 0.8087 0.4836 0.3350
vn 0.3350 0.4836 0.8087
vn -0.3350 0.4836 0.8087
vn -0.8087 0.4836 0.3350
vn -0.8087 0.4836 -0.3350
vn -0.3350 0.4836 -0.8087
vn -0.0000 -1.0000 -0.0000
vn -0.3827 -0.0000 -0.9239
vn -0.9239 -0.0000 -0.3827
vn -0.1405 0.9884 0.0582
vn -0.9239 -0.0000 0.3827
vn -0.3827 -0.0000 0.9239
vn 0.3827 -0.0000 0.9239
vn 0.9239 -0.0000 0.3827
vn 0.9239 -0.0000 -0.3827
vn 0.3827 -0.0000 -0.9239
vn 0.9953 -0.0000 -0.0965
vn 0.0565 0.9891 -0.1363
vn -1.0000 -0.0000 -0.0000
vn 0.0565 -0.9891 -0.1363
vn 0.1353 -0.9892 0.0561
vn 0.0965 -0.0000 0.9953
vn -0.0000 -0.0000 -1.0000
vn 0.1353 0.9892 0.0561
vn -0.0965 -0.0000 0.9953
vn -0.1405 -0.9884 0.0582
vt 1.000000 0.833333
vt 0.875000 1.000000
vt 0.875000 0.833333
vt 0.750000 1.000000
vt 0.750000 0.833333
vt 0.625000 1.000000
vt 0.625000 0.833333
vt 0.500000 1.000000
vt 0.500000 0.833333
vt 0.375000 1.000000
vt 0.375000 0.833333
vt 0.250000 1.000000
vt 0.250000 0.833333
vt 0.125000 1.000000
vt 0.125000 0.833333
vt 0.000000 1.000000
vt 0.000000 0.833333
vt 0.750000 0.490000
vt 0.919706 0.419706
vt 0.990000 0.250000
vt 0.919706 0.080294
vt 0.750000 0.010000
vt 0.580294 0.080294
vt 0.510000 0.250000
vt 0.580294 0.419706
vt 0.125000 0.611111
vt 0.125000 0.666667
vt 0.000000 0.666667
vt 0.000000 0.611111
vt 0.250000 0.611111
vt 0.250000 0.666667
vt 0.375000 0.666667
vt 0.500000 0.611111
vt 0.500000 0.666667
vt 0.375000 0.611111
vt 0.625000 0.611111
vt 0.625000 0.666667
vt 0.750000 0.611111
vt 0.750000 0.666667
vt 0.875000 0.611111
vt 0.875000 0.666667
vt 1.000000 0.611111
vt 1.000000 0.666667
vt 1.000000 0.500000
vt 1.000000 0.555556
vt 0.875000 0.555556
vt 0.875000 0.500000
vt 0.750000 0.555556
vt 0.750000 0.500000
vt 0.625000 0.555556
vt 0.625000 0.500000
vt 0.500000 0.555556
vt 0.500000 0.500000
vt 0.375000 0.555556
vt 0.375000 0.500000
vt 0.250000 0.555556
vt 0.250000 0.500000
vt 0.125000 0.555556
vt 0.125000 0.500000
vt 0.000000 0.555556
vt 0.000000 0.500000
s 0
f 11/1/1 2/2/1 12/3/1
f 12/3/2 2/4/2 14/5/2
f 14/5/3 2/6/3 16/7/3
f 16/7/4 2/8/4 18/9/4
f 18/9/5 2/10/5 20/11/5
f 20/11/6 2/12/6 22/13/6
f 22/13/7 2/14/7 24/15/7
f 24/15/8 2/16/8 11/17/8
f 1/18/9 3/19/9 4/20/9 5/21/9 6/22/9 7/23/9 8/24/9 9/25/9
f 39/26/10 25/27/10 10/28/10 42/29/10
f 25/27/10 24/15/10 11/17/10 10/28/10
f 37/30/11 23/31/11 25/27/11 39/26/11
f 23/31/11 22/13/11 24/15/11 25/27/11
f 21/32/12 23/31/12 44/32/12
f 21/32/13 20/11/13 22/13/13 23/31/13
f 33/33/14 19/34/14 21/32/14 35/35/14
f 19/34/14 18/9/14 20/11/14 21/32/14
f 31/36/15 17/37/15 19/34/15 33/33/15
f 17/37/15 16/7/15 18/9/15 19/34/15
f 29/38/16 15/39/16 17/37/16 31/36/16
f 15/39/16 14/5/16 16/7/16 17/37/16
f 27/40/17 13/41/17 15/39/17 29/38/17
f 13/41/17 12/3/17 14/5/17 15/39/17
f 42/42/18 10/43/18 13/41/18 27/40/18
f 12/3/19 13/41/19 26/3/19
f 11/1/20 12/3/20 26/1/20
f 10/28/21 11/17/21 26/28/21
f 13/41/22 10/43/22 26/41/22
f 1/44/18 41/45/18 28/46/18 3/47/18
f 41/45/18 42/42/18 27/40/18 28/46/18
f 3/47/17 28/46/17 30/48/17 4/49/17
f 28/46/17 27/40/17 29/38/17 30/48/17
f 4/49/16 30/48/16 32/50/16 5/51/16
f 32/50/23 30/48/23 43/50/23
f 5/51/15 32/50/15 34/52/15 6/53/15
f 32/50/15 31/36/15 33/33/15 34/52/15
f 6/53/14 34/52/14 36/54/14 7/55/14
f 34/52/14 33/33/14 35/35/14 36/54/14
f 7/55/13 36/54/13 38/56/13 8/57/13
f 36/54/13 35/35/13 37/30/13 38/56/13
f 8/57/11 38/56/11 40/58/11 9/59/11
f 38/56/11 37/30/11 39/26/11 40/58/11
f 9/59/10 40/58/10 41/60/10 1/61/10
f 40/58/10 39/26/10 42/29/10 41/60/10
f 31/36/24 32/50/24 43/36/24
f 30/48/25 29/38/25 43/48/25
f 29/38/26 31/36/26 43/38/26
f 23/31/25 37/30/25 44/31/25
f 35/35/27 21/32/27 44/35/27
f 37/30/28 35/35/28 44/30/28
